<svg width="10" height="10" viewBox="0 0 10 10" fill="none" xmlns="http://www.w3.org/2000/svg">
<path d="M2.29244 9.19602C3.31516 9.19602 4.14613 8.36506 4.15039 7.34659V6.35795H5.86346V7.34659C5.8592 8.36506 6.69016 9.19602 7.71289 9.19602C8.73136 9.19602 9.56232 8.36506 9.56232 7.34659C9.56232 6.32386 8.73136 5.4929 7.71289 5.48864H6.73278V3.77557H7.71289C8.73136 3.77983 9.56232 2.94886 9.56232 1.92614C9.56232 0.90767 8.73136 0.076704 7.71289 0.076704C6.69016 0.076704 5.8592 0.90767 5.86346 1.92614V2.90625H4.15039V1.92614C4.14613 0.90767 3.31516 0.076704 2.29244 0.076704C1.27397 0.076704 0.443004 0.90767 0.443004 1.92614C0.443004 2.94886 1.27397 3.77983 2.29244 3.77557H3.28107V5.48864H2.29244C1.27397 5.4929 0.443004 6.32386 0.443004 7.34659C0.443004 8.36506 1.27397 9.19602 2.29244 9.19602ZM2.29244 8.3267C1.75124 8.3267 1.31232 7.88778 1.31232 7.34659C1.31232 6.80114 1.75124 6.36222 2.29244 6.35795H3.28107V7.34659C3.27681 7.88778 2.83789 8.3267 2.29244 8.3267ZM2.29244 2.90625C1.75124 2.91051 1.31232 2.47159 1.31232 1.92614C1.31232 1.38494 1.75124 0.946022 2.29244 0.946022C2.83789 0.946022 3.27681 1.38494 3.28107 1.92614V2.90625H2.29244ZM7.71289 8.3267C7.16744 8.3267 6.72852 7.88778 6.73278 7.34659V6.35795H7.71289C8.25408 6.36222 8.693 6.80114 8.693 7.34659C8.693 7.88778 8.25408 8.3267 7.71289 8.3267ZM6.73278 2.90625V1.92614C6.72852 1.38494 7.16744 0.946022 7.71289 0.946022C8.25408 0.946022 8.693 1.38494 8.693 1.92614C8.693 2.47159 8.25408 2.91051 7.71289 2.90625H6.73278ZM4.15039 5.48864V3.77557H5.86346V5.48864H4.15039Z" fill="white"/>
</svg>
