<svg width="21" height="21" viewBox="0 0 21 21" fill="none" xmlns="http://www.w3.org/2000/svg">
<path d="M18.7193 14.6105L18.2079 14.1086L16.4072 15.9014L15.6943 15.1912L15.1826 15.6934L16.4072 16.9126L18.7193 14.6105Z" fill="#6366F1" stroke="#6366F1" strokeWidth="0.5"/>
<path d="M2.45351 16.7952L3.29024 15.9621L4.12718 16.7952L4.58057 16.3436L3.74396 15.5106L4.58057 14.6775L4.12718 14.2261L3.29024 15.0591L2.45351 14.2261L2 14.6775L2.83673 15.5106L2 16.3436L2.45351 16.7952Z" fill="#6366F1" stroke="#6366F1" strokeWidth="0.5"/>
<path d="M13.2545 9.62736L10.3791 6.75171V5.04663H9.70716V6.75183L6.8316 9.62739H2.9541V13.726H3.62604L3.62616 10.2991H6.83136L10.0429 13.5106L13.2544 10.2991H16.5577V13.7257H17.2296V9.62709L13.2545 9.62736ZM10.043 12.5605L7.44594 9.96336L10.043 7.36626L12.6401 9.96336L10.043 12.5605Z" fill="#6366F1" stroke="#6366F1" strokeWidth="0.5"/>
<path d="M10.0921 4.59338C9.37726 4.59338 8.79541 4.01177 8.79541 3.29669C8.79541 2.58173 9.37702 2 10.0921 2C10.8071 2 11.3888 2.58161 11.3888 3.29669C11.3887 4.01177 10.8071 4.59338 10.0921 4.59338ZM10.0921 2.50427C9.655 2.50427 9.29944 2.85971 9.29944 3.29693C9.29944 3.73403 9.65488 4.08959 10.0921 4.08959C10.5292 4.08959 10.8848 3.73415 10.8848 3.29693C10.8848 2.85971 10.5292 2.50427 10.0921 2.50427Z" fill="#6366F1" stroke="#6366F1" strokeWidth="0.5"/>
</svg>
