<svg width="16" height="16" viewBox="0 0 16 16" fill="none" xmlns="http://www.w3.org/2000/svg">
<path fillRule="evenodd" clipRule="evenodd" d="M10.0687 3.66864C10.2163 3.51582 10.3928 3.39393 10.588 3.31008C10.7832 3.22622 10.9932 3.18208 11.2056 3.18024C11.4181 3.17839 11.6288 3.21887 11.8254 3.29932C12.022 3.37977 12.2007 3.49858 12.3509 3.64881C12.5011 3.79903 12.6199 3.97768 12.7004 4.17431C12.7808 4.37095 12.8213 4.58163 12.8195 4.79408C12.8176 5.00653 12.7735 5.21648 12.6896 5.41169C12.6058 5.60689 12.4839 5.78344 12.3311 5.93104L9.93107 8.33104C9.63102 8.63099 9.22413 8.7995 8.79987 8.7995C8.37561 8.7995 7.96871 8.63099 7.66867 8.33104C7.51779 8.18531 7.31571 8.10468 7.10595 8.1065C6.89619 8.10832 6.69554 8.19246 6.54721 8.34078C6.39889 8.48911 6.31475 8.68976 6.31293 8.89952C6.31111 9.10927 6.39174 9.31136 6.53747 9.46224C7.13756 10.0621 7.95134 10.3992 8.79987 10.3992C9.64839 10.3992 10.4622 10.0621 11.0623 9.46224L13.4623 7.06224C14.0452 6.45871 14.3677 5.65038 14.3604 4.81135C14.3531 3.97232 14.0166 3.16972 13.4233 2.57642C12.83 1.98311 12.0274 1.64657 11.1884 1.63928C10.3493 1.63199 9.541 1.95453 8.93747 2.53744L7.73747 3.73744C7.66106 3.81124 7.60012 3.89951 7.55819 3.99711C7.51626 4.09472 7.49419 4.19969 7.49327 4.30592C7.49235 4.41214 7.51259 4.51748 7.55281 4.6158C7.59304 4.71412 7.65244 4.80344 7.72755 4.87855C7.80267 4.95367 7.89199 5.01307 7.99031 5.0533C8.08862 5.09352 8.19397 5.11376 8.30019 5.11284C8.40641 5.11192 8.51139 5.08985 8.60899 5.04792C8.7066 5.00599 8.79487 4.94505 8.86867 4.86864L10.0687 3.66864ZM6.06867 7.66864C6.36871 7.36868 6.77561 7.20018 7.19987 7.20018C7.62413 7.20018 8.03102 7.36868 8.33107 7.66864C8.40487 7.74505 8.49314 7.80599 8.59075 7.84792C8.68835 7.88985 8.79332 7.91192 8.89955 7.91284C9.00577 7.91376 9.11112 7.89352 9.20943 7.8533C9.30775 7.81307 9.39707 7.75367 9.47218 7.67855C9.5473 7.60344 9.6067 7.51412 9.64693 7.4158C9.68715 7.31748 9.70739 7.21214 9.70647 7.10592C9.70555 6.99969 9.68348 6.89472 9.64155 6.79711C9.59962 6.69951 9.53868 6.61124 9.46227 6.53744C8.86218 5.93753 8.04839 5.60052 7.19987 5.60052C6.35134 5.60052 5.53756 5.93753 4.93747 6.53744L2.53747 8.93744C2.23184 9.23263 1.98805 9.58573 1.82034 9.97614C1.65264 10.3666 1.56436 10.7865 1.56067 11.2114C1.55698 11.6362 1.63794 12.0576 1.79884 12.4509C1.95974 12.8442 2.19735 13.2014 2.49781 13.5019C2.79826 13.8024 3.15555 14.04 3.54882 14.2009C3.94208 14.3618 4.36346 14.4427 4.78835 14.439C5.21325 14.4353 5.63315 14.3471 6.02356 14.1794C6.41398 14.0117 6.76708 13.7679 7.06227 13.4622L8.26227 12.2622C8.33868 12.1884 8.39962 12.1002 8.44155 12.0026C8.48348 11.905 8.50555 11.8 8.50647 11.6938C8.50739 11.5875 8.48715 11.4822 8.44693 11.3839C8.4067 11.2856 8.3473 11.1962 8.27218 11.1211C8.19707 11.046 8.10775 10.9866 8.00943 10.9464C7.91112 10.9062 7.80577 10.8859 7.69955 10.8868C7.59332 10.8878 7.48835 10.9098 7.39075 10.9518C7.29314 10.9937 7.20487 11.0546 7.13107 11.131L5.93107 12.331C5.78347 12.4839 5.60692 12.6057 5.41172 12.6896C5.21651 12.7735 5.00656 12.8176 4.79411 12.8194C4.58166 12.8213 4.37098 12.7808 4.17434 12.7004C3.97771 12.6199 3.79907 12.5011 3.64884 12.3509C3.49861 12.2006 3.3798 12.022 3.29935 11.8254C3.21891 11.6287 3.17842 11.418 3.18027 11.2056C3.18211 10.9931 3.22625 10.7832 3.31011 10.588C3.39396 10.3928 3.51585 10.2162 3.66867 10.0686L6.06867 7.66864Z" fill="#6B7280"/>
</svg>
